<svg xmlns="http://www.w3.org/2000/svg" viewBox="0 0 114.321 74.435" fill="#010101"><path d="M103.822 61.76c-2.658 4.1-3.64 7.795-2.164 9.05 1.333 1.132 4.313-.038 7.533-2.696a32.26 32.26 0 0 0 4.009-3.989l.622-.754-1.147 1.834c-3.392 5.027-7.733 8.423-11.172 9.105l-.134.026c-.018.003-.038.008-.058.01h-.005c-.34.06-.684.1-1.03.1-.04 0-.08 0-.122-.003q-.066 0-.132-.005a3.68 3.68 0 0 1-3.236-2.24c-.607-1.595-.688-3.343-.23-4.988a16.06 16.06 0 0 1 2.383-5.344l.115-.17 1.684-2.497.006-.01.027-.04.284-.418.235-.353.05-.074a67.19 67.19 0 0 0 4.208-7.24c3.582-7.2 4.68-13.192 2.322-14.78-3.114-2.102-11.1 4.273-17.96 14.286l-.017.024-.284.418-.272.407-5.596 8.296.005-.04.438-.728a43.21 43.21 0 0 0 5.974-17.417c.123-2.333-.442-4.134-1.763-5.024-3.365-2.27-10.363 2.225-15.634 10.038l-10.33 15.32a46.14 46.14 0 0 1-5.027 6.787c-2.165 2.282-4.846 4-7.818 5.042-2.87 1.1-6.085.783-8.7-.828a8.03 8.03 0 0 1-1.061-.854c2.47 1.63 6.05 1.02 9.57-1.26a24.54 24.54 0 0 0 6.81-6.872l9.245-13.707c5.15-7.72 7.684-15.015 5.666-16.377-1.907-1.286-7.202 3.176-12.187 10.135l-.742 1.055a38.23 38.23 0 0 1 .625-1.11q.714-1.226 1.547-2.462c5.277-7.822 11.98-12.53 14.97-10.512a3.53 3.53 0 0 1 1.366 2.6c.298 2.252-.454 5.538-2.096 9.16a26.16 26.16 0 0 1 .726-.898 82.02 82.02 0 0 1 2.758-3.108c3.535-3.78 6.95-6.618 9.742-7.646a7.32 7.32 0 0 1 1.164-.33 5.63 5.63 0 0 1 .641-.08 3.47 3.47 0 0 1 2.22.558c2 1.36 2.363 4.7 1.283 8.86a33.13 33.13 0 0 1 9.176-7.825c1.9-1.138 4.07-1.742 6.286-1.747a6.38 6.38 0 0 1 1.284.195l.01.003a5.3 5.3 0 0 1 1.625.73c2.076 1.4 2.97 4.192 2.783 7.726a27.74 27.74 0 0 1-2.084 8.615c-.894 2.216-1.97 4.353-3.222 6.4l-.012.018-4.582 6.795a27.44 27.44 0 0 0-.562.831zm-1.35-55.02c-2.266-6.225-11.56-8.558-20.76-5.2a27.29 27.29 0 0 0-9.695 6.298c-2.943 2.898-7.6 10.117-7.62 10.1a44.21 44.21 0 0 0-13.994-2.681q-.643-.02-1.293-.02a44.25 44.25 0 0 0-29.259 10.998q-1.354 1.183-2.608 2.476 1.62-1.302 3.363-2.448a44.5 44.5 0 0 1 40.739-4.199l.017.006a4.16 4.16 0 0 1 .196.077l-.003.005L34.76 61.89a18.64 18.64 0 0 1-26.474 4.337c-.013-.008-.025-.017-.037-.027a12.94 12.94 0 0 1-3.488-3.971 8.34 8.34 0 0 1-1.046-3.988 8.52 8.52 0 0 1 1.374-4.552c3.248-5.195 11.895-8.9 22.053-8.9q1.306 0 2.576.082a38.76 38.76 0 0 1 2.141.193q-.7-.23-1.447-.422a31.31 31.31 0 0 0-7.52-1.01 27.68 27.68 0 0 0-16.804 4.944c-1.732 1.26-3.202 2.844-4.327 4.666l-.018.03c-.213.356-.407.72-.582 1.087a11.63 11.63 0 0 0-1.156 4.871c-.017 1.287.182 2.568.588 3.8a15.38 15.38 0 0 0 5.34 7.15c1.173.903 2.433 1.688 3.76 2.343a24.55 24.55 0 0 0 8.055 1.88q.76.048 1.53.047c.518 0 1.033-.015 1.543-.047a24.63 24.63 0 0 0 6.351-1.24c.267-.088.533-.184.798-.283 1.007-.378 1.988-.822 2.936-1.33l.366-.2c3-1.664 5.6-3.938 7.655-6.675a23.86 23.86 0 0 0 1.36-2.017L66.4 23.905c7.203 1.993 15.113 2.694 22.353.48 6.808-2.082 16.764-9.284 13.72-17.645zM88.958 20.015c-1.896.82-3.9 1.394-5.93 1.7a24.48 24.48 0 0 1-6.986.05 24.7 24.7 0 0 1-3.496-.739c-1.05-.303-3.363-1.1-3.45-1.14C71.8 16.23 75.813 6.125 89.182 4.07c4.17-.64 11.012.267 9.965 6.074-.122.667-.333 1.315-.628 1.925a12.76 12.76 0 0 1-3.285 4.02c-1.88 1.62-3.996 2.945-6.276 3.927z"/></svg>